<mxfile host="app.diagrams.net" modified="2023-12-30T02:39:46.677Z" agent="Mozilla/5.0 (Windows NT 10.0; Win64; x64) AppleWebKit/537.36 (KHTML, like Gecko) Chrome/104.0.0.0 Safari/537.36" version="22.1.16" etag="ErrjuGOcJ6mg09ZW5Utl" type="github">
  <diagram name="Page-1" id="2u9pE-MmX1JPQdljEYWo">
    <mxGraphModel>
      <root>
        <mxCell id="0" />
        <mxCell id="1" parent="0" />
      </root>
    </mxGraphModel>
  </diagram>
</mxfile>
